<?xml version="1.0" encoding="iso-8859-1"?>
<!-- Generator: Adobe Illustrator 16.0.0, SVG Export Plug-In . SVG Version: 6.00 Build 0)  -->
<!DOCTYPE svg PUBLIC "-//W3C//DTD SVG 1.1//EN" "http://www.w3.org/Graphics/SVG/1.1/DTD/svg11.dtd">
<svg version="1.1" id="Capa_1" xmlns="http://www.w3.org/2000/svg" xmlns:xlink="http://www.w3.org/1999/xlink" x="0px" y="0px"
	 width="435.074px" height="435.074px" viewBox="0 0 435.074 435.074" style="enable-background:new 0 0 435.074 435.074;"
	 xml:space="preserve">
<g>
	<g>
		<g>
			<path d="M418.074,200.537h-17.791c-3.923-42.427-22.711-82.393-53.032-112.713c-30.321-30.322-70.287-49.11-112.714-53.033V17
				c0-9.374-7.626-17-17-17s-17,7.626-17,17v17.792c-42.427,3.922-82.393,22.711-112.714,53.032
				c-30.321,30.32-49.109,70.286-53.032,112.713H17c-9.374,0-17,7.626-17,17s7.626,17,17,17h17.791
				c3.923,42.427,22.711,82.393,53.032,112.713c30.321,30.321,70.287,49.11,112.714,53.032v17.792c0,9.374,7.626,17,17,17
				s17-7.626,17-17v-17.792c42.427-3.922,82.393-22.711,112.714-53.032c30.321-30.32,49.109-70.286,53.032-112.713h17.791
				c9.374,0,17-7.626,17-17S427.448,200.537,418.074,200.537z M350.074,234.537h16.034c-7.831,68.908-62.663,123.74-131.571,131.571
				v-16.034c0-9.374-7.626-17-17-17s-17,7.626-17,17v16.034c-68.908-7.831-123.74-62.663-131.571-131.571H85c9.374,0,17-7.626,17-17
				s-7.626-17-17-17H68.966c7.831-68.908,62.663-123.74,131.571-131.571V85c0,9.374,7.626,17,17,17s17-7.626,17-17V68.966
				c68.908,7.831,123.74,62.663,131.571,131.571h-16.034c-9.374,0-17,7.626-17,17S340.7,234.537,350.074,234.537z"/>
			<path d="M217.55,122.668c-27.538,0-42.778,14.27-42.5,41.767c0.403,37.659,16.406,60.504,42.5,60.106
				c0,0,42.479,1.723,42.479-60.106C260.028,136.937,245.678,122.668,217.55,122.668z"/>
			<path d="M292.686,253.124l-42.444-16.923l-9.939-8.376c-2.625-2.218-6.502-2.057-8.938,0.366l-13.818,13.741l-13.859-13.746
				c-2.437-2.418-6.309-2.572-8.931-0.361l-9.94,8.376l-42.446,16.925c-13.668,5.443-13.657,53.849-14.831,58.291h180
				C306.365,306.984,306.359,258.562,292.686,253.124z"/>
		</g>
	</g>
</g>
<g>
</g>
<g>
</g>
<g>
</g>
<g>
</g>
<g>
</g>
<g>
</g>
<g>
</g>
<g>
</g>
<g>
</g>
<g>
</g>
<g>
</g>
<g>
</g>
<g>
</g>
<g>
</g>
<g>
</g>
</svg>
